<?xml version="1.0" encoding="UTF-8" standalone="no"?>
<!DOCTYPE svg PUBLIC "-//W3C//DTD SVG 1.1//EN" "http://www.w3.org/Graphics/SVG/1.1/DTD/svg11.dtd">
<svg version="1.1" xmlns="http://www.w3.org/2000/svg" xmlns:xlink="http://www.w3.org/1999/xlink" preserveAspectRatio="xMidYMid meet" viewBox="0 0 388 145" width="388" height="145"><defs><path d="M323.97 12.01L326.41 12.36L328.82 12.8L331.19 13.33L333.53 13.96L335.82 14.68L338.08 15.48L340.3 16.37L342.48 17.34L344.61 18.39L346.69 19.52L348.72 20.73L350.7 22.01L352.63 23.37L354.5 24.8L356.31 26.3L358.07 27.86L359.76 29.49L361.39 31.18L362.95 32.94L364.45 34.75L365.88 36.62L367.23 38.55L368.52 40.53L369.73 42.56L370.86 44.64L371.91 46.77L372.88 48.95L373.77 51.16L374.57 53.42L375.29 55.72L375.91 58.06L376.45 60.43L376.89 62.84L377.24 65.28L377.49 67.74L377.64 70.24L377.69 72.76L377.64 75.28L377.49 77.78L377.24 80.25L376.89 82.68L376.45 85.09L375.91 87.46L375.29 89.8L374.57 92.1L373.77 94.36L372.88 96.58L371.91 98.75L370.86 100.88L369.73 102.96L368.52 104.99L367.23 106.97L365.88 108.9L364.45 110.77L362.95 112.58L361.39 114.34L359.76 116.03L358.07 117.66L356.31 119.23L354.5 120.72L352.63 122.15L350.7 123.51L348.72 124.79L346.69 126L344.61 127.13L342.48 128.18L340.3 129.16L338.08 130.04L335.82 130.85L333.53 131.56L331.19 132.19L328.82 132.72L326.41 133.17L323.97 133.51L321.5 133.77L319.01 133.92L316.49 133.97L313.97 133.92L311.47 133.77L309 133.51L306.56 133.17L304.16 132.72L301.79 132.19L299.45 131.56L297.15 130.85L294.89 130.04L292.67 129.16L290.5 128.18L288.37 127.13L286.29 126L284.26 124.79L282.28 123.51L280.35 122.15L278.48 120.72L276.66 119.23L274.91 117.66L273.22 116.03L271.59 114.34L270.02 112.58L268.52 110.77L267.1 108.9L265.74 106.97L264.46 104.99L263.25 102.96L262.12 100.88L261.06 98.75L260.09 96.58L259.21 94.36L258.4 92.1L257.69 89.8L257.06 87.46L256.52 85.09L256.08 82.68L255.73 80.25L255.48 77.78L255.33 75.28L255.28 72.76L255.33 70.24L255.48 67.74L255.73 65.28L256.08 62.84L256.52 60.43L257.06 58.06L257.69 55.72L258.4 53.42L259.21 51.16L260.09 48.95L261.06 46.77L262.12 44.64L263.25 42.56L264.46 40.53L265.74 38.55L267.1 36.62L268.52 34.75L270.02 32.94L271.59 31.18L273.22 29.49L274.91 27.86L276.66 26.3L278.48 24.8L280.35 23.37L282.28 22.01L284.26 20.73L286.29 19.52L288.37 18.39L290.5 17.34L292.67 16.37L294.89 15.48L297.15 14.68L299.45 13.96L301.79 13.33L304.16 12.8L306.56 12.36L309 12.01L311.47 11.76L313.97 11.61L316.49 11.55L319.01 11.61L321.5 11.76L321.5 11.76L323.97 12.01ZM79.14 12.01L81.58 12.36L83.99 12.8L86.36 13.33L88.7 13.96L91 14.68L93.26 15.48L95.47 16.37L97.65 17.34L99.78 18.39L101.86 19.52L103.89 20.73L105.87 22.01L107.8 23.37L109.67 24.8L111.48 26.3L113.24 27.86L114.93 29.49L116.56 31.18L118.12 32.94L119.62 34.75L121.05 36.62L122.41 38.55L123.69 40.53L124.9 42.56L126.03 44.64L127.08 46.77L128.05 48.95L128.94 51.16L129.74 53.42L130.46 55.72L131.09 58.06L131.62 60.43L132.06 62.84L132.41 65.28L132.66 67.74L132.81 70.24L132.87 72.76L132.81 75.28L132.66 77.78L132.41 80.25L132.06 82.68L131.62 85.09L131.09 87.46L130.46 89.8L129.74 92.1L128.94 94.36L128.05 96.58L127.08 98.75L126.03 100.88L124.9 102.96L123.69 104.99L122.41 106.97L121.05 108.9L119.62 110.77L118.12 112.58L116.56 114.34L114.93 116.03L113.24 117.66L111.48 119.23L109.67 120.72L107.8 122.15L105.87 123.51L103.89 124.79L101.86 126L99.78 127.13L97.65 128.18L95.47 129.16L93.26 130.04L91 130.85L88.7 131.56L86.36 132.19L83.99 132.72L81.58 133.17L79.14 133.51L76.68 133.77L74.18 133.92L71.66 133.97L69.14 133.92L66.64 133.77L64.17 133.51L61.74 133.17L59.33 132.72L56.96 132.19L54.62 131.56L52.32 130.85L50.06 130.04L47.84 129.16L45.67 128.18L43.54 127.13L41.46 126L39.43 124.79L37.45 123.51L35.52 122.15L33.65 120.72L31.83 119.23L30.08 117.66L28.39 116.03L26.76 114.34L25.19 112.58L23.7 110.77L22.27 108.9L20.91 106.97L19.63 104.99L18.42 102.96L17.29 100.88L16.24 98.75L15.26 96.58L14.38 94.36L13.57 92.1L12.86 89.8L12.23 87.46L11.7 85.09L11.25 82.68L10.91 80.25L10.65 77.78L10.5 75.28L10.45 72.76L10.5 70.24L10.65 67.74L10.91 65.28L11.25 62.84L11.7 60.43L12.23 58.06L12.86 55.72L13.57 53.42L14.38 51.16L15.26 48.95L16.24 46.77L17.29 44.64L18.42 42.56L19.63 40.53L20.91 38.55L22.27 36.62L23.7 34.75L25.19 32.94L26.76 31.18L28.39 29.49L30.08 27.86L31.83 26.3L33.65 24.8L35.52 23.37L37.45 22.01L39.43 20.73L41.46 19.52L43.54 18.39L45.67 17.34L47.84 16.37L50.06 15.48L52.32 14.68L54.62 13.96L56.96 13.33L59.33 12.8L61.74 12.36L64.17 12.01L66.64 11.76L69.14 11.61L71.66 11.55L74.18 11.61L76.68 11.76L76.68 11.76L79.14 12.01ZM201.56 12.01L204 12.36L206.4 12.8L208.77 13.33L211.11 13.96L213.41 14.68L215.67 15.48L217.89 16.37L220.06 17.34L222.19 18.39L224.27 19.52L226.3 20.73L228.28 22.01L230.21 23.37L232.08 24.8L233.9 26.3L235.65 27.86L237.34 29.49L238.97 31.18L240.54 32.94L242.04 34.75L243.46 36.62L244.82 38.55L246.1 40.53L247.31 42.56L248.44 44.64L249.5 46.77L250.47 48.95L251.35 51.16L252.16 53.42L252.87 55.72L253.5 58.06L254.04 60.43L254.48 62.84L254.83 65.28L255.08 67.74L255.23 70.24L255.28 72.76L255.23 75.28L255.08 77.78L254.83 80.25L254.48 82.68L254.04 85.09L253.5 87.46L252.87 89.8L252.16 92.1L251.35 94.36L250.47 96.58L249.5 98.75L248.44 100.88L247.31 102.96L246.1 104.99L244.82 106.97L243.46 108.9L242.04 110.77L240.54 112.58L238.97 114.34L237.34 116.03L235.65 117.66L233.9 119.23L232.08 120.72L230.21 122.15L228.28 123.51L226.3 124.79L224.27 126L222.19 127.13L220.06 128.18L217.89 129.16L215.67 130.04L213.41 130.85L211.11 131.56L208.77 132.19L206.4 132.72L204 133.17L201.56 133.51L199.09 133.77L196.59 133.92L194.07 133.97L191.55 133.92L189.06 133.77L186.59 133.51L184.15 133.17L181.74 132.72L179.37 132.19L177.03 131.56L174.74 130.85L172.48 130.04L170.26 129.16L168.08 128.18L165.95 127.13L163.87 126L161.84 124.79L159.86 123.51L157.93 122.15L156.06 120.72L154.25 119.23L152.49 117.66L150.8 116.03L149.17 114.34L147.61 112.58L146.11 110.77L144.68 108.9L143.32 106.97L142.04 104.99L140.83 102.96L139.7 100.88L138.65 98.75L137.68 96.58L136.79 94.36L135.99 92.1L135.27 89.8L134.65 87.46L134.11 85.09L133.67 82.68L133.32 80.25L133.07 77.78L132.92 75.28L132.87 72.76L132.92 70.24L133.07 67.74L133.32 65.28L133.67 62.84L134.11 60.43L134.65 58.06L135.27 55.72L135.99 53.42L136.79 51.16L137.68 48.95L138.65 46.77L139.7 44.64L140.83 42.56L142.04 40.53L143.32 38.55L144.68 36.62L146.11 34.75L147.61 32.94L149.17 31.18L150.8 29.49L152.49 27.86L154.25 26.3L156.06 24.8L157.93 23.37L159.86 22.01L161.84 20.73L163.87 19.52L165.95 18.39L168.08 17.34L170.26 16.37L172.48 15.48L174.74 14.68L177.03 13.96L179.37 13.33L181.74 12.8L184.15 12.36L186.59 12.01L189.06 11.76L191.55 11.61L194.07 11.55L196.59 11.61L199.09 11.76L199.09 11.76L201.56 12.01Z" id="aS2y508cY"></path></defs><g><g><g><use xlink:href="#aS2y508cY" opacity="1" fill="#ffffff" fill-opacity="0"></use><g><use xlink:href="#aS2y508cY" opacity="1" fill-opacity="0" stroke="#000000" stroke-width="21" stroke-opacity="1"></use></g></g></g></g></svg>